<?xml version="1.0" encoding="UTF-8" standalone="no"?>
<!-- Created with Inkscape (http://www.inkscape.org/) -->

<svg
   width="32"
   height="32"
   viewBox="0 0 8.4666665 8.4666666"
   version="1.1"
   id="svg1"
   inkscape:version="1.4 (e7c3feb100, 2024-10-09)"
   sodipodi:docname="animation_values_manager.svg"
   xmlns:inkscape="http://www.inkscape.org/namespaces/inkscape"
   xmlns:sodipodi="http://sodipodi.sourceforge.net/DTD/sodipodi-0.dtd"
   xmlns="http://www.w3.org/2000/svg"
   xmlns:svg="http://www.w3.org/2000/svg">
  <sodipodi:namedview
     id="namedview1"
     pagecolor="#ffffff"
     bordercolor="#000000"
     borderopacity="0.25"
     inkscape:showpageshadow="2"
     inkscape:pageopacity="0.0"
     inkscape:pagecheckerboard="0"
     inkscape:deskcolor="#d1d1d1"
     inkscape:document-units="mm"
     inkscape:zoom="17.436412"
     inkscape:cx="14.94"
     inkscape:cy="17.549482"
     inkscape:window-width="1920"
     inkscape:window-height="1012"
     inkscape:window-x="0"
     inkscape:window-y="0"
     inkscape:window-maximized="1"
     inkscape:current-layer="layer1"
     showgrid="true">
    <inkscape:grid
       id="grid1"
       units="px"
       originx="0"
       originy="0"
       spacingx="0.26458332"
       spacingy="0.26458332"
       empcolor="#0099e5"
       empopacity="0.30196078"
       color="#0099e5"
       opacity="0.14901961"
       empspacing="5"
       enabled="true"
       visible="true" />
  </sodipodi:namedview>
  <defs
     id="defs1" />
  <g
     inkscape:label="Layer 1"
     inkscape:groupmode="layer"
     id="layer1">
    <path
       id="rect1"
       style="fill:#c38ef1;stroke-width:0.204375;stroke-linejoin:round"
       d="M 0.37617217,1.3229165 H 3.5925777 c 0.2083994,0 0.3761722,0.1677728 0.3761722,0.3761722 v 3.2164055 c 0,0.2083994 -0.1677728,0.3761722 -0.3761722,0.3761722 H 0.37617217 C 0.1677728,5.2916664 0,5.1238936 0,4.9154942 V 1.6990887 C 0,1.4906893 0.1677728,1.3229165 0.37617217,1.3229165 Z" />
    <path
       style="font-size:10.1509px;font-family:'Cambria Math';-inkscape-font-specification:'Cambria Math, Normal';fill:#ffffff;stroke-width:0.278403;stroke-linejoin:round"
       d="m 0.39520467,4.0949054 q 0,-0.074347 -0.0185868,-0.1301072 0,-0.1672817 0.22304227,-0.2973898 0.14869481,-0.074347 0.22304222,-0.074347 0.0929343,0.018586 0.13010796,0.1115209 0.11152108,0.2602159 0.14869478,0.3531502 0.037174,0.074347 0.074347,0.074347 0.037174,0 0.074347,-0.05576 Q 1.8821529,2.9611074 2.383998,2.3477413 2.7743218,1.88307 2.8672561,1.8087225 3.1646457,1.5856803 3.5735566,1.5670934 l 0.018586,0.092934 Q 3.2761669,1.9760042 2.495519,3.0726284 1.7334581,4.1692528 1.3988947,4.8012058 1.3245473,4.9684876 1.2130262,5.0056612 1.1572656,5.0614218 0.97139711,5.0428349 0.84128913,5.0614218 0.78552859,5.0056612 0.72976802,4.9684876 0.67400748,4.8569664 0.48813892,4.4108819 0.39520467,4.0949054 Z"
       id="text1"
       aria-label="✓" />
    <path
       id="path5"
       style="fill:#c38ef1;stroke-width:0.204375;stroke-linejoin:round"
       d="m 2.4928387,2.6458331 h 3.2164056 c 0.2083994,0 0.3761722,0.1677728 0.3761722,0.3761722 v 3.2164055 c 0,0.2083994 -0.1677728,0.3761722 -0.3761722,0.3761722 H 2.4928387 c -0.2083993,0 -0.3761721,-0.1677728 -0.3761721,-0.3761722 V 3.0220053 c 0,-0.2083994 0.1677728,-0.3761722 0.3761721,-0.3761722 z" />
    <path
       style="font-size:10.1509px;font-family:'Cambria Math';-inkscape-font-specification:'Cambria Math, Normal';fill:#ffffff;stroke-width:0.278403;stroke-linejoin:round"
       d="m 2.5118712,5.417822 q 0,-0.074347 -0.018587,-0.1301072 0,-0.1672817 0.2230423,-0.2973898 0.1486948,-0.074347 0.2230422,-0.074347 0.092934,0.018586 0.130108,0.1115209 0.1115211,0.2602159 0.1486948,0.3531502 0.037174,0.074347 0.074347,0.074347 0.037174,0 0.074347,-0.05576 Q 3.9988195,4.284024 4.5006646,3.6706579 4.8909884,3.2059866 4.9839227,3.1316391 5.2813123,2.9085969 5.6902232,2.89001 l 0.018586,0.092934 Q 5.3928335,3.2989208 4.6121856,4.395545 3.8501247,5.4921694 3.5155613,6.1241224 3.4412139,6.2914042 3.3296928,6.3285778 3.2739322,6.3843384 3.0880637,6.3657515 2.9579557,6.3843384 2.9021952,6.3285778 2.8464346,6.2914042 2.790674,6.179883 2.6048055,5.7337985 2.5118712,5.417822 Z"
       id="path6"
       aria-label="✓" />
    <path
       id="path7"
       style="fill:#c38ef1;stroke-width:0.204375;stroke-linejoin:round"
       d="m 4.8740886,3.7041664 h 3.2164056 c 0.2083994,0 0.3761722,0.1677728 0.3761722,0.3761722 v 3.2164055 c 0,0.2083994 -0.1677728,0.3761722 -0.3761722,0.3761722 H 4.8740886 c -0.2083993,0 -0.3761721,-0.1677728 -0.3761721,-0.3761722 V 4.0803386 c 0,-0.2083994 0.1677728,-0.3761722 0.3761721,-0.3761722 z" />
    <path
       style="font-size:10.1509px;font-family:'Cambria Math';-inkscape-font-specification:'Cambria Math, Normal';fill:#ffffff;stroke-width:0.278403;stroke-linejoin:round"
       d="m 4.8931211,6.4761553 q 0,-0.074347 -0.018587,-0.1301072 0,-0.1672817 0.2230423,-0.2973898 0.1486948,-0.074347 0.2230422,-0.074347 0.092934,0.018586 0.130108,0.1115209 0.1115211,0.2602159 0.1486948,0.3531502 0.037174,0.074347 0.074347,0.074347 0.037174,0 0.074347,-0.05576 Q 6.3800694,5.3423573 6.8819145,4.7289912 7.2722383,4.2643199 7.3651726,4.1899724 7.6625622,3.9669302 8.0714731,3.9483433 l 0.018586,0.092934 Q 7.7740834,4.3572541 6.9934355,5.4538783 6.2313746,6.5505027 5.8968112,7.1824557 5.8224638,7.3497375 5.7109427,7.3869111 5.6551821,7.4426717 5.4693136,7.4240848 5.3392056,7.4426717 5.2834451,7.3869111 5.2276845,7.3497375 5.1719239,7.2382163 4.9860554,6.7921318 4.8931211,6.4761553 Z"
       id="path8"
       aria-label="✓" />
  </g>
</svg>
