<?xml version="1.0" encoding="UTF-8" standalone="no"?>
<!-- Created with Inkscape (http://www.inkscape.org/) -->

<svg
   width="32"
   height="32"
   viewBox="0 0 8.4666665 8.4666666"
   version="1.1"
   id="svg1"
   inkscape:version="1.4 (86a8ad7, 2024-10-11)"
   sodipodi:docname="bean_counter.svg"
   xmlns:inkscape="http://www.inkscape.org/namespaces/inkscape"
   xmlns:sodipodi="http://sodipodi.sourceforge.net/DTD/sodipodi-0.dtd"
   xmlns="http://www.w3.org/2000/svg"
   xmlns:svg="http://www.w3.org/2000/svg">
  <sodipodi:namedview
     id="namedview1"
     pagecolor="#ffffff"
     bordercolor="#000000"
     borderopacity="0.25"
     inkscape:showpageshadow="2"
     inkscape:pageopacity="0.0"
     inkscape:pagecheckerboard="0"
     inkscape:deskcolor="#d1d1d1"
     inkscape:document-units="mm"
     showgrid="true"
     inkscape:zoom="22.627417"
     inkscape:cx="14.429398"
     inkscape:cy="15.09231"
     inkscape:window-width="1845"
     inkscape:window-height="1057"
     inkscape:window-x="67"
     inkscape:window-y="-5"
     inkscape:window-maximized="1"
     inkscape:current-layer="layer1">
    <inkscape:grid
       id="grid1"
       units="px"
       originx="0"
       originy="0"
       spacingx="0.26458333"
       spacingy="0.26458331"
       empcolor="#0099e5"
       empopacity="0.30196078"
       color="#0099e5"
       opacity="0.14901961"
       empspacing="4"
       enabled="true"
       visible="true" />
  </sodipodi:namedview>
  <defs
     id="defs1" />
  <g
     inkscape:label="Layer 1"
     inkscape:groupmode="layer"
     id="layer1">
    <path
       id="path26"
       style="display:inline;fill:#71c594;stroke-width:0.290483;stroke-linejoin:round"
       d="M 2.7197306 0.26458333 C 0.96795587 0.26458333 0.2618709 1.9182291 0.27595215 2.9104167 C 0.27269515 3.9899728 0.49709128 8.2020833 4.194576 8.2020833 C 4.5322808 8.2020833 4.8561682 8.1437293 5.1583415 8.038269 L 5.1583415 6.7479085 L 3.8359416 6.7479085 L 3.8359416 5.1583415 L 5.1583415 5.1583415 L 5.1583415 3.8359416 L 6.7479085 3.8359416 L 6.7479085 5.1583415 L 7.1411662 5.1583415 C 7.1131248 3.9157788 6.3236263 2.8178707 5.1547241 2.4117391 C 4.9895122 1.1821686 3.9492149 0.26496245 2.7197306 0.26458333 z M 5.2916667 3.96875 L 5.2916667 5.2916667 L 3.96875 5.2916667 L 3.96875 6.6145833 L 5.2916667 6.6145833 L 5.2916667 7.9375 L 5.4094889 7.9375 C 5.4534149 7.9174211 5.4969917 7.896078 5.5397135 7.873938 C 5.5824353 7.851798 5.6243021 7.8288612 5.665804 7.8046916 C 5.7049083 7.7819183 5.7436062 7.7583877 5.7815592 7.7338949 C 5.7436062 7.7583877 5.7049083 7.7819183 5.665804 7.8046916 C 5.6243021 7.8288612 5.5824353 7.851798 5.5397135 7.873938 C 5.4969917 7.896078 5.4534149 7.9174211 5.4094889 7.9375 L 6.6145833 7.9375 L 6.6145833 6.9256755 L 6.6145833 6.6145833 L 6.8026855 6.6145833 L 7.9375 6.6145833 L 7.9375 5.2916667 L 7.1421997 5.2916667 C 7.1412367 5.3360247 7.1393753 5.3800987 7.1365153 5.4239583 C 7.1334428 5.4709802 7.1293241 5.5176027 7.124113 5.5640015 C 7.1189018 5.6104002 7.1128096 5.6567686 7.1055094 5.7024943 C 7.0982093 5.74822 7.0895274 5.7934004 7.080188 5.8384033 C 7.0708486 5.8834062 7.0605112 5.9280151 7.0491821 5.9722453 C 7.0378531 6.0164755 7.0257608 6.0600958 7.0124919 6.1035034 C 6.9992229 6.146911 6.9847596 6.1901593 6.9696004 6.2326945 C 6.9544412 6.2752297 6.9385411 6.3171721 6.9215413 6.358785 C 6.9045415 6.4003979 6.8865886 6.4416509 6.8677979 6.4822917 C 6.8865886 6.4416509 6.9045415 6.4003979 6.9215413 6.358785 C 6.9385411 6.3171721 6.9544412 6.2752297 6.9696004 6.2326945 C 6.9847596 6.1901593 6.9992229 6.146911 7.0124919 6.1035034 C 7.0257608 6.0600958 7.0378531 6.0164755 7.0491821 5.9722453 C 7.0605112 5.9280151 7.0708486 5.8834062 7.080188 5.8384033 C 7.0895274 5.7934004 7.0982093 5.74822 7.1055094 5.7024943 C 7.1128096 5.6567686 7.1189018 5.6104002 7.124113 5.5640015 C 7.1293241 5.5176027 7.1334428 5.4709802 7.1365153 5.4239583 C 7.1393853 5.3800983 7.1412397 5.3360253 7.1421997 5.2916667 L 6.6145833 5.2916667 L 6.6145833 3.96875 L 5.2916667 3.96875 z M 6.4822917 7.1034424 C 6.4539448 7.1385738 6.4248435 7.1730338 6.3949585 7.2067952 C 6.3650735 7.2405567 6.3343423 7.2736725 6.3029744 7.306014 C 6.2716066 7.3383555 6.2396517 7.3697102 6.2068563 7.4005819 C 6.1740609 7.4314536 6.1402549 7.4616637 6.1060872 7.4910156 C 6.0719195 7.5203675 6.0371856 7.5490164 6.0017008 7.5767985 C 5.9662161 7.6045807 5.9304436 7.631768 5.8936971 7.6579305 C 5.9304436 7.631768 5.9662161 7.6045807 6.0017008 7.5767985 C 6.0371856 7.5490164 6.0719195 7.5203675 6.1060872 7.4910156 C 6.1402549 7.4616637 6.1740609 7.4314536 6.2068563 7.4005819 C 6.2396517 7.3697102 6.2716066 7.3383555 6.3029744 7.306014 C 6.3343423 7.2736725 6.3650735 7.2405567 6.3949585 7.2067952 C 6.4248435 7.1730338 6.4539448 7.1385738 6.4822917 7.1034424 z " />
    <path
       id="path15"
       style="display:inline;fill:#ffffff;stroke-width:0.389531;stroke-linejoin:round"
       d="M 4.1943896,2.4143224 A 0.81926655,1.1575521 0 0 1 3.375123,3.5718745 0.81926655,1.1575521 0 0 1 2.5558565,2.4143224 0.81926655,1.1575521 0 0 1 3.375123,1.2567703 0.81926655,1.1575521 0 0 1 4.1943896,2.4143224 Z" />
    <path
       id="path16"
       style="display:inline;fill:#ffffff;stroke-width:0.403204;stroke-linejoin:round"
       d="M 4.8498034,3.7372392 A 0.32770662,0.49609377 0 0 1 4.5220968,4.2333329 0.32770662,0.49609377 0 0 1 4.1943902,3.7372392 0.32770662,0.49609377 0 0 1 4.5220968,3.2411454 0.32770662,0.49609377 0 0 1 4.8498034,3.7372392 Z" />
  </g>
</svg>
